<?xml version="1.0" encoding="UTF-8" standalone="no"?>
<svg
   xmlns:dc="http://purl.org/dc/elements/1.1/"
   xmlns:cc="http://creativecommons.org/ns#"
   xmlns:rdf="http://www.w3.org/1999/02/22-rdf-syntax-ns#"
   xmlns:svg="http://www.w3.org/2000/svg"
   xmlns="http://www.w3.org/2000/svg"
   xmlns:sodipodi="http://sodipodi.sourceforge.net/DTD/sodipodi-0.dtd"
   xmlns:inkscape="http://www.inkscape.org/namespaces/inkscape"
   version="1.0"
   width="485"
   height="580"
   viewBox="0 0 388 464"
   preserveAspectRatio="xMidYMid meet"
   id="svg2"
   inkscape:version="0.48.4 r9939"
   sodipodi:docname="Seal_of_Bihar.svg">
  <defs
     id="defs21" />
  <sodipodi:namedview
     pagecolor="#ffffff"
     bordercolor="#666666"
     borderopacity="1"
     objecttolerance="10"
     gridtolerance="10"
     guidetolerance="10"
     inkscape:pageopacity="0"
     inkscape:pageshadow="2"
     inkscape:window-width="917"
     inkscape:window-height="712"
     id="namedview19"
     showgrid="false"
     showguides="true"
     inkscape:guide-bbox="true"
     inkscape:zoom="1.01307"
     inkscape:cx="130.8684"
     inkscape:cy="338.87449"
     inkscape:window-x="426"
     inkscape:window-y="-5"
     inkscape:window-maximized="0"
     inkscape:current-layer="svg2" />
  <metadata
     id="metadata4">
Created by potrace 1.11, written by Peter Selinger 2001-2013
<rdf:RDF>
  <cc:Work
     rdf:about="">
    <dc:format>image/svg+xml</dc:format>
    <dc:type
       rdf:resource="http://purl.org/dc/dcmitype/StillImage" />
  </cc:Work>
</rdf:RDF>
</metadata>
  <rect
     width="388"
     height="464"
     id="background"
     x="0"
     y="0"
     style="fill:#043a69" />
  <g
     transform="matrix(0.1,0,0,-0.1,0,556)"
     id="g7"
     style="fill:#1ac4d8;fill-opacity:1;stroke:none">
    <path
       d="m 1900,5263 c -54,-64 -123,-201 -145,-293 -10,-41 -19,-77 -21,-79 -2,-2 -35,18 -74,44 -101,67 -280,159 -290,149 -5,-5 -19,-88 -31,-184 -12,-96 15.6974,-228.8717 12.6974,-232.8717 -3,-4 -88.6974,36.8717 -140.6974,28.8717 -51,-8 -96,-17 -99,-20 -10,-10 35,-171 65,-232 59,-122 142,-188 383,-307 148,-72 240,-143 266,-206 9,-20 18,-69 21,-110 6,-73 -15,-331 -26,-331 -11,0 -138,134 -150,157 -6,13 -22,77 -36,143 -35,172 -59,226 -120,272 -27,21 -78,49 -112,63 -66,26 -270,71 -280,61 -10,-9 47,-225 75,-285 23,-50 85,-120 162,-187 14,-12 63,-40 110,-64 201,-101 300,-173 336,-248 16,-31 19,-62 18,-194 0,-87 -3,-160 -6,-164 -9,-8 -224,102 -289,148 -65,45 -93,97 -129,236 -51,201 -90,255 -270,374 -211,139 -235,196 -206,487 23,227 8,332 -72,486 -38,73 -149,194 -209,228 l -32,18 -16,-53 c -35,-119 -47,-209 -43,-321 3,-100 7,-119 34,-177 17,-36 68,-114 113,-175 46,-60 94,-128 106,-150 34,-58 205,-423 205,-438 0,-9 -2,-9 -8,-1 -4,6 -45,30 -91,53 -159,80 -204,143 -281,391 -71,227 -104,279 -233,364 -86,56 -266,151 -274,143 -9,-10 -43,-194 -43,-237 0,-56 24,-150 53,-209 32,-65 96,-132 200,-208 l 92,-68 -35,-2 c -19,-2 -67,-6 -107,-9 l -71,-6 40,-116 c 70,-206 134,-298 271,-389 116,-77 161,-124 224,-241 109,-200 175,-247 369,-265 l 111,-11 6,-145 c 4,-104 12,-171 27,-231 25,-96 82,-233 124,-299 l 28,-43 30,28 c 82,79 127,190 154,383 14,93 21,121 31,117 7,-3 51,-15 97,-28 l 84,-22 7,-130 c 3,-72 5,-198 3,-281 l -3,-150 -366,-3 -366,-2 -6,-83 c -9,-106 -9,-668 0,-774 l 6,-83 863,0 864,0 0,470 0,470 -361,0 -362,0 8,203 c 4,111 10,231 14,267 l 6,65 32,-57 c 18,-31 53,-79 78,-105 24,-26 45,-51 45,-55 0,-14 143,-129 150,-121 13,14 117,283 140,363 29,97 23,149 -30,259 -22,46 -39,86 -37,88 3,2 56,17 118,34 218,58 369,155 417,266 18,43 56,212 49,219 -4,4 -324,-90 -391,-115 -139,-52 -185,-83 -357,-246 -95,-89 -187,-165 -201,-165 -11,0 -18,127 -12,200 l 7,77 41,21 c 22,11 82,37 131,58 144,59 158,68 287,190 l 123,116 44,-6 c 24,-3 94,-22 155,-42 127,-42 234,-53 318,-34 66,15 245,100 278,132 14,13 65,53 113,88 48,35 84,66 80,71 -13,12 -163,39 -253,46 -165,11 -296,-23 -471,-122 -62,-36 -115,-65 -117,-65 -7,0 68,102 157,212 l 86,108 160,-7 c 302,-11 390,33 505,257 27,54 50,101 50,105 0,4 -71,5 -157,3 -181,-5 -221,-16 -323,-84 -36,-24 -105,-79 -155,-123 -49,-43 -92,-77 -94,-76 -5,5 36,75 122,208 107,169 132,228 132,314 -1,63 -5,80 -43,155 -65,129 -61,126 -119,87 -104,-70 -225.0921,-178.9178 -131.0921,-173.9178 L 3248,4823 l 12,-39 c 6,-22 14,-83 17,-137 6,-97 5,-98 -30,-170 -31,-62 -133,-194 -143,-185 -2,2 -51.2259,-29.9163 -37.2259,29.0837 13,60 82.2259,193.9163 80.2259,195.9163 -2,1 4.4323,52.7615 -38.5677,-2.2385 C 3074.1447,4377.2441 2987.0226,4307.7376 2982,4320 c -4.5484,11.1046 10,223 32,330 13,63 83.0461,156.6974 82.0461,158.6974 C 3088.3037,4819.2946 2968.6219,4720.8038 2965,4630 c -9,-30 -25,-118 -35,-195 -11,-77 -25,-150 -32,-162 -11,-23 -143,-133 -157,-133 -4,0 -16,9 -27,21 -39,43 -94,62 -190,67 l -92,4 70,66 c 101,96 182,217 223,333 l 13,37 -81,7 c -122,10 -122,10 -97,48 60,92 119,245 135,350 l 7,47 -40,0 c -141,0 -324,-91 -488,-242 l -41,-38 -7,87 c -9,108 -29,200 -57,256 -23,46 -96,127 -115,127 -7,0 -31,-21 -54,-47 z m 108,-60 c 58,-115 67,-157 67,-303 0,-102 -5,-149 -18,-194 -10,-33 -6.2064,-70.7936 -11.2064,-65.7936 -5,5 -41.8452,-57.4518 -66.8452,5.5482 -26,63 -21.3612,282.8326 -23.3612,284.8326 -2,2 -44.4324,103.7809 -40.4324,17.7809 3,-87 15.8452,-358.3681 12.8452,-358.3681 -11,0 -87,126 -109,180 -18,43 -23,75 -23,146 0,82 3,97 32,155 26,52 133,189 148,189 2,0 17,-26 32,-57 z m 637,-140 c -43,-213 -89,-299 -203,-372 -45,-28 -170,-81 -193,-81 -6,0 -73.8131,-11.1743 -40.8131,51.8257 34,63 242.6262,180.1743 242.6262,183.1743 0,3 7.5871,50.1743 -20.4129,27.1743 C 2375.4002,4829.1743 2154,4700 2144,4700 c -8,0 53,107 74,129 9,10 34,39 55,65 52,64 125,110 238,151 109,39 139,43 134,18 z m -1169,-69 c 90,-41 188,-110 216,-151 14,-21 32,-60 41,-88 18,-57 39,-166 33,-172 -2,-3 -11.3096,-66.9163 -48.3096,-41.9163 -37,25 -179.5551,261.1617 -181.5551,259.1617 -2,-1 -44.2775,39.9679 -28.2775,-6.0321 C 1524.8578,4749.2133 1680,4497 1680,4495 c 0,-16 -191,94 -235,136 -76,72 -88,130 -63,307 7,52 16,82 23,82 7,0 39,-12 71,-26 z M 790,4790 c 65,-109 116,-297 108,-397 l -3,-38 -28.3026,-105.3126 C 828.6974,4297.6874 756,4529 754,4528 c -1,-2 4,-52 12,-113 20,-160 101.3948,-239.3948 50.3948,-182.3948 C 760.3948,4294.6052 635,4459 614,4541 c -29,108 -20,299 18,398 9,24 9,24 64,-30 31,-30 73,-83 94,-119 z m 453,-136 c 139,-36 266,-131 327,-245 46,-87 52.8452,-132.4839 -48.1548,-93.4839 -47,18 -146.2259,149.4518 -147.2259,148.4518 -2,-2 -64.8131,32.0195 -28.8131,-15.9805 C 1381.8062,4399.9874 1548,4205 1546,4202 c -3,-2 -40,13 -83,34 -94,47 -207,153 -247,231 -26,52 -56,151 -56,185 0,22 6,22 83,2 z m 1411,-76 c -78,-154 -167,-255 -267,-301 -52,-25 -225,-72 -233,-64 -6,6 45,200 54,206 5,3 17,21 26,39 22,42 85,106 128,128 53,28 127,42 226,43 l 92,1 z M 237,4546 c 123,-54 210,-111 245,-162 24,-35 108,-204 108,-217 0,-3 59.56915,-167.9639 19.56915,-153.9639 C 569.56915,4026.0361 443,4209 439,4208 c -4,-2 -114.19381,107.8842 -75.19381,45.8842 C 402.80619,4191.8842 570,3976 566,3973 c -9,-9 -139,33 -210,69 -107,54 -184,158 -211,285 -13,59 -21,263 -11,263 2,0 48,-20 103,-44 z m 2023,37 c 0,-11 -38,-73 -55,-89 -7,-8 -28,-39 -46,-71 -30,-53 -33,-55 -41,-33 -5,13 -7,60 -6,104 l 3,81 65,6 c 36,3 68,6 73,7 4,1 7,-1 7,-5 z m -210,-203 c 22,-291 8,-1708 -20,-2100 -15,-204 -9,-190 -79,-190 l -59,0 -9,78 c -14,133 -8,962 10,1282 9,162 24,431 32,598 17,321 32,417 77,490 l 22,36 8,-29 c 4,-16 12,-90 18,-165 z m -295,50 c 3,0 23,-16 45,-36 54,-49 70,-106 70,-251 0,-62 -4,-113 -8,-113 -12,0 -124,84 -154,116 -15,16 -34,47 -44,69 -16,40 -44,187 -44,237 l 0,27 65,-24 c 36,-14 68,-25 70,-25 z m 1995,-66 c 0,-14 -86,-148 -121,-187 -49,-56 -112,-83 -236,-102 -54,-8 -236.2454,8.6904 -240.2454,8.6904 -5,0 192.5745,18.0516 212.5745,45.0516 20,27 -15.3291,33.258 -15.3291,38.258 0,6 -171.9874,-57.0195 -193.9874,-47.0195 -22,10 113.9874,97.0195 113.9874,101.0195 0,21 127,89 212,114 86,24 268,45 268,29 z m -712,-176 c -35,-198 -129,-352 -259,-427 -98.3339,-51.6046 -40.4019,135.2494 118.3486,277.039 32,67 -70.3486,-28.039 -72.3486,-28.039 -2,0 -43,-27 -90,-60 -47,-33 -85,-57 -85,-54 0,3 18,41 41,85 72,138 125,184 269,235 91,32 89,32 78,-28 z m -709,-10 c -7,-13 -23,-40 -36,-60 -13,-21 -22,-38 -20,-38 3,0 35,14 73,31 77,35 239,79 291,79 31,0 34,-2 27,-22 -14,-48 -65,-153 -89,-184 -33,-43 -120,-99 -201,-130 -53,-20 -218,-64 -239,-64 -6,0 66,204 75,210 3,3 107.7099,103.8131 111.7099,112.8131 5,15 5.9484,19.9484 -14.0516,11.9484 C 2294.6583,4119.7615 2163,4011 2140,4000 c -22,-11 -40,-17 -39,-13 0,5 14,46 32,93 l 32,85 65,17 c 36,9 75,16 88,17 20,1 22,-1 11,-21 z m -1039,-64 c 212,-67 259,-112 295,-283 19,-93 20,-92 -12,-81 -16,5 -136.0711,156.1422 -181.0711,161.1422 -45,6 146.8005,-227.8005 127.8005,-219.8005 C 1393.1637,3701.2003 1223.8272,3901.9568 1190,4071 c -16.9,84.4535 -24,83 100,43 z m 1284,-255 c -21,-23 -66,-61 -99,-87 -33,-25 -64,-50 -70,-57 -5,-6 -59,-44 -120,-85 -60,-40 -125,-87 -144,-104 l -33,-31 7,120 c 4,66 8,121 9,122 1,1 37,11 80,23 43,11 151,49 239,84 89,35 164,62 166,60 3,-3 -13,-23 -35,-45 z m -2182,17 c 118,-27 194,-59 251,-107 32,-27 170,-219 163,-227 -2,-1 44.12427,-125.505 -14.87573,-100.505 C 732.12427,3466.495 585,3630 583,3630 c -2,0 -63.65826,25.9679 -10.65826,-38.0321 C 624.34174,3527.9679 769,3396 767,3394 c -10,-8 -163,22 -205,41 -65,30 -140,106 -186,188 -45,80 -114,277 -98,277 4,0 55,-11 114,-24 z m 3187,-23 c 0,-5 -32,-35 -70,-68 -39,-33 -82,-70 -95,-83 -64,-57 -178,-91 -333,-98 l -137.5872,26.5872 17.0838,67.7935 c 55,28 216.5034,7.6193 219.5034,11.6193 3,4 14,12 25,18 16,9 -7,11 -105,12 l -125,0 35,21 c 50,31 154,69 230,84 70,14 340,20 339,8 z M 860,3710 c 3,-3 29,-23 58,-44 49,-35 59,-50 114,-165 95,-198 100,-202 326,-303 238,-105 355,-171 409,-229 29,-32 43,-90 43,-177 0,-88 8,-87 -148,-7 -151,79 -248,152 -422,320 -85,83 -189,178 -230,212 -101,82 -124,107 -158,178 -27,54 -92,242 -92,264 0,9 88,-35 100,-49 z m 272,34 c 28,-14 60,-34 71,-45 12,-10 24,-19 28,-19 15,0 66,-85 102,-168 l 75.4839,-228.0906 -99.1227,110.3486 c -13.4483,14.9714 -135.6582,168.5746 -136.6582,166.5746 -2,-1 83.0195,-144.5551 96.0195,-183.5551 14,-40 78.2775,-127.2775 75.2775,-127.2775 -12,0 -152,75 -180,96 -43,33 -81,108 -93,184 -14,85 -14,240 -1,240 6,0 34,-12 62,-26 z m 1517,-31 c -25,-60 -74,-125 -141,-189 -61,-59 -307.0906,-188.2259 -312.0906,-174.2259 -2,5 213.3165,161.297 226.3165,188.297 40,79 -0.2259,55.9289 -14.2259,44.9289 -80,-63 -187,-143 -193,-143 -3,0 -26,-14 -51,-30 -24,-17 -44,-28 -44,-25 0,14 68,104 120,158 60,63 129,112 200,142 25,11 47,22 50,26 5,6 145,47 167,48 8,1 6,-14 -8,-46 z m 381,-297 c -76,-201 -197,-295 -450,-346 -56,-11 -110.9484,-34.7936 -117.9484,-32.7936 -6,2 -89.6066,25.1032 -54.6066,61.1032 34,35 231.7809,70.9484 231.7809,73.9484 0,3 51.7615,44.3292 -2.2385,28.3292 C 2526.9874,3167.5872 2380,3137 2380,3150 c 0,17 133,117 210,158 109,59 333,128 422,131 25,1 27,-1 18,-23 z M 874,3324 c 102,-20 148,-47 226,-132 38,-41 69,-77 67,-78 -1,-2 85.0922,-141.4409 42.0922,-137.4409 -42,4 -199.0922,147.4409 -199.0922,145.4409 0,-2 -76.60665,40.9163 -40.60665,-5.0837 C 1006.3933,3069.9163 1140,2946 1137,2943 c -9,-8 -133,25 -181,48 -56,28 -123,94 -151,149 -23,46 -65,171 -65,196 0,14 3,14 134,-12 z m 1560,-387 c 80,-56 99,-90 98,-176 -1,-86 -27,-165 -99,-300 l -55,-103 -54,53 c -30,30 -67,72 -82,94 -15,22 -30,42 -33,45 -16,14 -29,82 -29,158 0,91 18,212 32,212 4,0 8,11 8,25 0,14 5,25 10,25 6,0 61.3291,8.8452 61.3291,4.8452 0,-5 8.2581,-194.2454 43.2581,-259.2454 L 2365,2722 l -30.6388,136.8968 c -2,71 -7.8968,117.1548 -2.8968,117.1548 4,-1 70.5356,-16.0516 102.5356,-39.0516 z m -975,-86 c 82,-104 110,-245 77,-392 -20,-88 -65,-183 -89,-187 -45,-9 -123,134 -153,281 -17,78 -20,270 -5,308 l 9,24 45.5356,6.5872 c 5,-14 2.258,-99.5356 18.258,-147.5356 15,-48 15.2064,-81.0516 18.2064,-79.0516 4,3 10,37 14,77 9,104 17,148 26,148 5,0 22,-18 39,-39 z m 1279,-1228 2,-393 -793,0 -794,0 -7,53 c -8,67 -8,650 0,700 l 7,37 791,-2 791,-3 z"
       id="path9"
       style="fill:#1ac4d8;fill-opacity:1"
       inkscape:connector-curvature="0"
       sodipodi:nodetypes="ccscssscsccccscccccccccccccccccccccccscccccscccccccccccccccccccccccccccccccccccccccsccccccsccsccccccccccscccsccccscscccccccccccccccscccccsccccccccccscccssccscscscscssscccscscsccccccccsccsccscccccccccccccccsscccscccsccccccccsccscccscscccccccsccsccccccccscssscsccssccssssscscccssscccccscscccscccccccccccccccsccccccccsccsccccssccccscccccccscccccccccccsccccscscsccsccsccsscccccscscccccccccscscccccccsccccsccscccscssssscccccccccccccccsccccccccccc" />
    <path
       d="m 1278,1943 -58,-4 0,-319 0,-320 719,0 719,0 7,148 c 8,145 0,480 -11,491 -6,7 -1287,10 -1376,4 z m 1301,-72 c 17,-11 27,-258 16,-404 l -7,-97 -649,0 -649,0 0,249 c 0,229 1,250 18,254 33,9 1257,7 1271,-2 z"
       id="path11"
       style="fill:#1ac4d8;fill-opacity:1"
       inkscape:connector-curvature="0" />
    <path
       d="m 1360,1627 0,-174 143,-6 c 183,-9 725,-9 890,0 l 127,6 0,174 0,173 -580,0 -580,0 0,-173 z m 110,97 c 0,-31 7,-80 16,-110 l 16,-55 41,3 c 40,3 41,4 54,53 7,28 13,76 13,108 l 0,57 35,0 35,0 -1,-92 c 0,-51 -5,-109 -12,-128 -35,-101 -228,-96 -257,8 -5,20 -10,76 -10,125 l 0,87 35,0 35,0 0,-56 z m 650,-1 c 0,-32 6,-81 12,-110 l 13,-53 47,0 47,0 15,54 c 9,30 16,79 16,110 l 0,56 36,0 36,0 -4,-102 c -5,-115 -16,-147 -59,-172 -40,-24 -125,-25 -167,-2 -52,27 -65,70 -63,209 l 1,67 35,0 35,0 0,-57 z m -290,-98 0,-145 -40,0 -40,0 0,145 0,145 40,0 40,0 0,-145 z m 148,-2 3,-143 -41,0 -40,0 0,146 0,145 38,-3 37,-3 3,-142 z m 512,2 0,-145 -40,0 -40,0 0,145 0,145 40,0 40,0 0,-145 z"
       id="path13"
       style="fill:#1ac4d8;fill-opacity:1"
       inkscape:connector-curvature="0" />
    <path
       d="m 160,2575 0,-265 155,0 155,0 0,-50 0,-50 -155,0 -155,0 0,-105 0,-105 260,0 260,0 0,155 0,155 55,0 55,0 0,-155 0,-155 105,0 105,0 0,260 0,260 -160,0 -160,0 0,55 0,55 160,0 160,0 0,105 0,105 -265,0 -265,0 0,-160 0,-160 -50,0 -50,0 0,160 0,160 -105,0 -105,0 0,-265 z m 140,35 0,-160 120,0 120,0 0,160 0,160 195,0 195,0 0,-35 0,-35 -160,0 -160,0 0,-125 0,-125 160,0 160,0 0,-190 0,-190 -35,0 -35,0 0,155 0,155 -125,0 -125,0 0,-155 0,-155 -190,0 -190,0 0,35 0,35 155,0 155,0 0,120 0,120 -155,0 -155,0 0,195 0,195 35,0 35,0 0,-160 z"
       id="path15"
       style="fill:#1ac4d8;fill-opacity:1"
       inkscape:connector-curvature="0" />
    <path
       d="m 2890,2575 0,-265 155,0 155,0 0,-50 0,-50 -155,0 -155,0 0,-105 0,-105 260,0 260,0 0,155 0,155 55,0 55,0 0,-155 0,-155 105,0 105,0 0,260 0,260 -160,0 -160,0 0,55 0,55 160,0 160,0 0,105 0,105 -265,0 -265,0 0,-160 0,-160 -50,0 -50,0 0,160 0,160 -105,0 -105,0 0,-265 z m 140,35 0,-160 120,0 120,0 0,160 0,160 195,0 195,0 0,-35 0,-35 -160,0 -160,0 0,-125 0,-125 160,0 160,0 0,-190 0,-190 -35,0 -35,0 0,155 0,155 -125,0 -125,0 0,-155 0,-155 -190,0 -190,0 0,35 0,35 155,0 155,0 0,120 0,120 -155,0 -155,0 0,195 0,195 35,0 35,0 0,-160 z"
       id="path17"
       style="fill:#1ac4d8;fill-opacity:1"
       inkscape:connector-curvature="0" />
  </g>
</svg>
